<?xml version="1.0" encoding="UTF-8" standalone="no"?>
<svg
   xmlns:dc="http://purl.org/dc/elements/1.1/"
   xmlns:cc="http://creativecommons.org/ns#"
   xmlns:rdf="http://www.w3.org/1999/02/22-rdf-syntax-ns#"
   xmlns:svg="http://www.w3.org/2000/svg"
   xmlns="http://www.w3.org/2000/svg"
   xmlns:sodipodi="http://sodipodi.sourceforge.net/DTD/sodipodi-0.dtd"
   xmlns:inkscape="http://www.inkscape.org/namespaces/inkscape"
   id="Layer_1"
   style="enable-background:new 0 0 128 128;"
   version="1.1"
   viewBox="0 0 128 128"
   xml:space="preserve"
   sodipodi:docname="behence2.svg"
   inkscape:version="0.92.4 (5da689c313, 2019-01-14)"><metadata
     id="metadata4558"><rdf:RDF><cc:Work
         rdf:about=""><dc:format>image/svg+xml</dc:format><dc:type
           rdf:resource="http://purl.org/dc/dcmitype/StillImage" /><dc:title></dc:title></cc:Work></rdf:RDF></metadata><defs
     id="defs4556" /><sodipodi:namedview
     pagecolor="#000000"
     bordercolor="#666666"
     borderopacity="1"
     objecttolerance="10"
     gridtolerance="10"
     guidetolerance="10"
     inkscape:pageopacity="0"
     inkscape:pageshadow="2"
     inkscape:window-width="1816"
     inkscape:window-height="1057"
     id="namedview4554"
     showgrid="false"
     showguides="true"
     inkscape:guide-bbox="true"
     inkscape:zoom="2.4583009"
     inkscape:cx="162.51571"
     inkscape:cy="-15.278332"
     inkscape:window-x="96"
     inkscape:window-y="-8"
     inkscape:window-maximized="1"
     inkscape:current-layer="Layer_1"><sodipodi:guide
       position="-14.644261,128"
       orientation="0,1"
       id="guide4562"
       inkscape:locked="false"
       inkscape:label=""
       inkscape:color="rgb(0,0,255)" /><sodipodi:guide
       position="13.806742,102.54382"
       orientation="0,1"
       id="guide4564"
       inkscape:locked="false" /><sodipodi:guide
       position="17.258427,0"
       orientation="0,1"
       id="guide4566"
       inkscape:locked="false" /><sodipodi:guide
       position="-35.186905,25"
       orientation="0,1"
       id="guide4568"
       inkscape:locked="false"
       inkscape:label=""
       inkscape:color="rgb(0,0,255)" /></sodipodi:namedview><style
     type="text/css"
     id="style4539">
	.st0{fill:#FFFFFF;}
	.st1{fill:none;stroke:#444B54;stroke-width:6;stroke-linecap:round;stroke-linejoin:round;stroke-miterlimit:10;}
	.st2{fill:#76ECFF;}
	.st3{fill:#E4E7E7;}
	.st4{fill:#FF697B;}
	.st5{fill:#659EC9;}
	.st6{fill:#FFFFFF;}
	.st7{fill:#A4F4C4;}
	.st8{fill:#06A18C;}
	.st9{fill:#8FE5B5;}
	.st10{opacity:0.5;fill:#06A18C;}
	.st11{opacity:0.5;}
	.st12{fill:#FFDBAB;}
	.st13{fill:#D18669;}
	.st14{fill:#FCF09D;}
	.st15{fill:none;stroke:#FFFFFF;stroke-miterlimit:10;}
	.st16{fill:#EDECEB;}
	.st17{fill:#4FBBC6;}
	.st18{display:none;}
	.st19{display:inline;fill:#5EC8D3;}
	.st20{display:inline;}
	.st21{fill:#ED74A5;}
	.st22{fill:#C12762;}
</style><g
     id="g4551"
     transform="matrix(1.2726,0,0,1.2726,-17.250099,-22.355468)"><g
       id="g4545"><g
         id="g4543"><path
           class="st6"
           d="m 42.6,37.6 c 2.9,0 5.5,0.3 7.9,0.8 2.4,0.5 4.4,1.3 6.1,2.5 1.7,1.2 3,2.7 4,4.6 0.9,1.9 1.4,4.3 1.4,7.1 0,3.1 -0.7,5.6 -2.1,7.7 -1.4,2 -3.4,3.7 -6.2,5 3.7,1.1 6.5,3 8.4,5.7 1.8,2.7 2.8,5.9 2.8,9.7 0,3.1 -0.6,5.7 -1.8,8 -1.2,2.2 -2.8,4.1 -4.8,5.5 -2,1.4 -4.3,2.5 -6.9,3.1 -2.6,0.7 -5.3,1 -8,1 H 17 c -1.7,0 -3,-1.3 -3,-3 V 40.6 c 0,-1.7 1.3,-3 3,-3 z m -1.7,24.6 c 2.4,0 4.3,-0.6 5.9,-1.7 1.5,-1.1 2.3,-3 2.3,-5.5 0,-1.4 -0.3,-2.6 -0.8,-3.5 -0.5,-0.9 -1.2,-1.6 -2,-2.1 C 45.4,48.9 44.5,48.5 43.4,48.3 42.2,48.1 41,48 39.9,48 H 29.4 c -1.1,0 -2,0.9 -2,2 v 10.2 c 0,1.1 0.9,2 2,2 z M 41.6,88 c 1.3,0 2.6,-0.1 3.7,-0.4 1.2,-0.3 2.2,-0.7 3.1,-1.3 0.9,-0.6 1.6,-1.4 2.2,-2.4 0.5,-1 0.8,-2.3 0.8,-3.9 0,-3.1 -0.9,-5.3 -2.6,-6.7 -1.8,-1.3 -4.1,-2 -7,-2 H 29.4 c -1.1,0 -2,0.9 -2,2 V 86 c 0,1.1 0.9,2 2,2 z m 43.6,-1.3 c 1.8,1.8 4.4,2.6 7.8,2.6 2.4,0 4.5,-0.6 6.3,-1.8 1.3,-0.9 2.2,-1.8 2.8,-2.8 0.4,-0.7 1.1,-1.1 1.9,-1.1 h 5.9 c 1.6,0 2.8,1.7 2.1,3.2 -1.6,3.6 -3.8,6.3 -6.6,8.1 -3.5,2.3 -7.8,3.4 -12.8,3.4 -3.5,0 -6.6,-0.6 -9.4,-1.7 -2.8,-1.1 -5.1,-2.7 -7.1,-4.7 -1.9,-2 -3.4,-4.5 -4.5,-7.3 -1,-2.8 -1.6,-6 -1.6,-9.4 0,-3.3 0.5,-6.3 1.6,-9.2 1.1,-2.8 2.6,-5.3 4.6,-7.4 2,-2.1 4.4,-3.7 7.1,-4.9 2.7,-1.2 5.8,-1.8 9.1,-1.8 3.7,0 7,0.7 9.8,2.2 2.8,1.4 5.1,3.4 6.8,5.8 1.8,2.4 3.1,5.2 3.9,8.3 0.8,3.1 1.1,6.4 0.9,9.8 H 84.3 c -1.2,0 -2.2,1.1 -2,2.3 0.5,3 1.4,5 2.9,6.4 z M 98.8,63.6 c -1.4,-1.6 -3.6,-2.4 -6.6,-2.4 -1.9,0 -3.5,0.3 -4.8,1 -1.3,0.7 -2.3,1.5 -3.1,2.4 -0.8,1 -1.3,2 -1.6,3.1 V 68 c -0.4,1.3 0.6,2.6 1.9,2.6 h 14.7 c 1.3,0 2.3,-1.3 1.9,-2.6 -0.6,-1.9 -1.4,-3.3 -2.4,-4.4 z"
           id="path4541"
           inkscape:connector-curvature="0"
           style="fill:#ffffff" /></g></g><g
       id="g4549"><path
         class="st6"
         d="m 102.5,46.6 h -20 c -1.7,0 -3,-1.3 -3,-3 0,-1.7 1.3,-3 3,-3 h 20 c 1.7,0 3,1.3 3,3 0,1.7 -1.4,3 -3,3 z"
         id="path4547"
         inkscape:connector-curvature="0"
         style="fill:#ffffff" /></g></g></svg>