<?xml version="1.0" ?><svg id="Layer_1" style="enable-background:new 0 0 128 128;" version="1.1" viewBox="0 0 128 128" xml:space="preserve" xmlns="http://www.w3.org/2000/svg" xmlns:xlink="http://www.w3.org/1999/xlink"><style type="text/css">
	.st0{fill:#FFFFFF;}
	.st1{fill:none;stroke:#444B54;stroke-width:6;stroke-linecap:round;stroke-linejoin:round;stroke-miterlimit:10;}
	.st2{fill:#76ECFF;}
	.st3{fill:#E4E7E7;}
	.st4{fill:#FF697B;}
	.st5{fill:#659EC9;}
	.st6{fill:#FFFFFF;}
	.st7{fill:#A4F4C4;}
	.st8{fill:#06A18C;}
	.st9{fill:#8FE5B5;}
	.st10{opacity:0.5;fill:#06A18C;}
	.st11{opacity:0.5;}
	.st12{fill:#FFDBAB;}
	.st13{fill:#D18669;}
	.st14{fill:#FCF09D;}
	.st15{fill:none;stroke:#FFFFFF;stroke-miterlimit:10;}
	.st16{fill:#EDECEB;}
	.st17{fill:#4FBBC6;}
	.st18{display:none;}
	.st19{display:inline;fill:#5EC8D3;}
	.st20{display:inline;}
	.st21{fill:#ED74A5;}
	.st22{fill:#C12762;}
</style><g><g><g><path class="st6" d="M42.6,37.6c2.9,0,5.5,0.3,7.9,0.8c2.4,0.5,4.4,1.3,6.1,2.5c1.7,1.2,3,2.7,4,4.6c0.9,1.9,1.4,4.3,1.4,7.1     c0,3.1-0.7,5.6-2.1,7.7c-1.4,2-3.4,3.7-6.2,5c3.7,1.1,6.5,3,8.4,5.7c1.8,2.7,2.8,5.9,2.8,9.7c0,3.1-0.6,5.7-1.8,8     c-1.2,2.2-2.8,4.1-4.8,5.5c-2,1.4-4.3,2.5-6.9,3.1c-2.6,0.7-5.3,1-8,1H17c-1.7,0-3-1.3-3-3V40.6c0-1.7,1.3-3,3-3H42.6z      M40.9,62.2c2.4,0,4.3-0.6,5.9-1.7c1.5-1.1,2.3-3,2.3-5.5c0-1.4-0.3-2.6-0.8-3.5c-0.5-0.9-1.2-1.6-2-2.1     c-0.9-0.5-1.8-0.9-2.9-1.1C42.2,48.1,41,48,39.9,48H29.4c-1.1,0-2,0.9-2,2v10.2c0,1.1,0.9,2,2,2L40.9,62.2L40.9,62.2z M41.6,88     c1.3,0,2.6-0.1,3.7-0.4c1.2-0.3,2.2-0.7,3.1-1.3c0.9-0.6,1.6-1.4,2.2-2.4c0.5-1,0.8-2.3,0.8-3.9c0-3.1-0.9-5.3-2.6-6.7     c-1.8-1.3-4.1-2-7-2H29.4c-1.1,0-2,0.9-2,2V86c0,1.1,0.9,2,2,2L41.6,88L41.6,88z M85.2,86.7c1.8,1.8,4.4,2.6,7.8,2.6     c2.4,0,4.5-0.6,6.3-1.8c1.3-0.9,2.2-1.8,2.8-2.8c0.4-0.7,1.1-1.1,1.9-1.1h5.9c1.6,0,2.8,1.7,2.1,3.2c-1.6,3.6-3.8,6.3-6.6,8.1     c-3.5,2.3-7.8,3.4-12.8,3.4c-3.5,0-6.6-0.6-9.4-1.7c-2.8-1.1-5.1-2.7-7.1-4.7c-1.9-2-3.4-4.5-4.5-7.3c-1-2.8-1.6-6-1.6-9.4     c0-3.3,0.5-6.3,1.6-9.2c1.1-2.8,2.6-5.3,4.6-7.4c2-2.1,4.4-3.7,7.1-4.9c2.7-1.2,5.8-1.8,9.1-1.8c3.7,0,7,0.7,9.8,2.2     c2.8,1.4,5.1,3.4,6.8,5.8c1.8,2.4,3.1,5.2,3.9,8.3c0.8,3.1,1.1,6.4,0.9,9.8l-29.5,0c-1.2,0-2.2,1.1-2,2.3     C82.8,83.3,83.7,85.3,85.2,86.7L85.2,86.7z M98.8,63.6c-1.4-1.6-3.6-2.4-6.6-2.4c-1.9,0-3.5,0.3-4.8,1c-1.3,0.7-2.3,1.5-3.1,2.4     c-0.8,1-1.3,2-1.6,3.1L82.7,68c-0.4,1.3,0.6,2.6,1.9,2.6l14.7,0c1.3,0,2.3-1.3,1.9-2.6C100.6,66.1,99.8,64.7,98.8,63.6z"/></g></g><g><path class="st6" d="M102.5,46.6h-20c-1.7,0-3-1.3-3-3s1.3-3,3-3h20c1.7,0,3,1.3,3,3S104.1,46.6,102.5,46.6z"/></g></g></svg>