<?xml version="1.0" encoding="UTF-8" standalone="no"?>
<svg
   xmlns:dc="http://purl.org/dc/elements/1.1/"
   xmlns:cc="http://creativecommons.org/ns#"
   xmlns:rdf="http://www.w3.org/1999/02/22-rdf-syntax-ns#"
   xmlns:svg="http://www.w3.org/2000/svg"
   xmlns="http://www.w3.org/2000/svg"
   xmlns:sodipodi="http://sodipodi.sourceforge.net/DTD/sodipodi-0.dtd"
   xmlns:inkscape="http://www.inkscape.org/namespaces/inkscape"
   viewBox="0 0 40 40"
   fill="#FFFFFF"
   version="1.1"
   id="svg4588"
   sodipodi:docname="instagram2.svg"
   inkscape:version="0.92.4 (5da689c313, 2019-01-14)">
  <metadata
     id="metadata4594">
    <rdf:RDF>
      <cc:Work
         rdf:about="">
        <dc:format>image/svg+xml</dc:format>
        <dc:type
           rdf:resource="http://purl.org/dc/dcmitype/StillImage" />
        <dc:title></dc:title>
      </cc:Work>
    </rdf:RDF>
  </metadata>
  <defs
     id="defs4592" />
  <sodipodi:namedview
     pagecolor="#00004f"
     bordercolor="#666666"
     borderopacity="1"
     objecttolerance="10"
     gridtolerance="10"
     guidetolerance="10"
     inkscape:pageopacity="0"
     inkscape:pageshadow="2"
     inkscape:window-width="1816"
     inkscape:window-height="1057"
     id="namedview4590"
     showgrid="false"
     inkscape:zoom="16.68772"
     inkscape:cx="17.936476"
     inkscape:cy="16.098461"
     inkscape:window-x="96"
     inkscape:window-y="-8"
     inkscape:window-maximized="1"
     inkscape:current-layer="svg4588" />
  <g
     id="Instagram"
     transform="matrix(1.6697712,0,0,1.6697712,-13.425387,-13.395424)">
    <path
       d="m 20,10.16 c 3.2,0 3.58,0 4.85,0.07 a 6.67,6.67 0 0 1 2.23,0.42 3.89,3.89 0 0 1 2.27,2.27 6.67,6.67 0 0 1 0.42,2.23 c 0.06,1.27 0.07,1.65 0.07,4.85 0,3.2 0,3.58 -0.07,4.85 a 6.67,6.67 0 0 1 -0.42,2.23 3.89,3.89 0 0 1 -2.27,2.27 6.67,6.67 0 0 1 -2.23,0.42 c -1.27,0.06 -1.65,0.07 -4.85,0.07 -3.2,0 -3.58,0 -4.85,-0.07 A 6.67,6.67 0 0 1 12.92,29.35 3.89,3.89 0 0 1 10.65,27.08 6.67,6.67 0 0 1 10.23,24.85 C 10.17,23.58 10.16,23.2 10.16,20 c 0,-3.2 0,-3.58 0.07,-4.85 a 6.67,6.67 0 0 1 0.42,-2.23 3.89,3.89 0 0 1 2.27,-2.27 6.67,6.67 0 0 1 2.23,-0.42 C 16.42,10.17 16.8,10.16 20,10.16 M 20,8 C 16.74,8 16.33,8 15.05,8.07 A 8.76,8.76 0 0 0 12.14,8.63 6.07,6.07 0 0 0 8.63,12.14 8.76,8.76 0 0 0 8.07,15.05 C 8,16.33 8,16.74 8,20 c 0,3.26 0,3.67 0.07,4.95 a 8.76,8.76 0 0 0 0.56,2.91 6.07,6.07 0 0 0 3.51,3.51 8.76,8.76 0 0 0 2.91,0.56 C 16.33,32 16.74,32 20,32 c 3.26,0 3.67,0 4.95,-0.07 A 8.76,8.76 0 0 0 27.86,31.37 6.07,6.07 0 0 0 31.37,27.86 8.76,8.76 0 0 0 31.93,25 C 32,23.67 32,23.26 32,20 32,16.74 32,16.33 31.93,15.05 A 8.76,8.76 0 0 0 31.37,12.14 6.07,6.07 0 0 0 27.86,8.63 8.76,8.76 0 0 0 25,8.07 C 23.67,8 23.26,8 20,8 Z m 0,5.84 A 6.16,6.16 0 1 0 26.16,20 6.16,6.16 0 0 0 20,13.84 Z M 20,24 a 4,4 0 1 1 4,-4 4,4 0 0 1 -4,4 z m 6.41,-11.85 a 1.44,1.44 0 1 0 1.44,1.44 1.44,1.44 0 0 0 -1.44,-1.44 z"
       id="path4585"
       inkscape:connector-curvature="0" />
  </g>
</svg>
