<?xml version="1.0" encoding="utf-8"?>
<!-- Generator: Adobe Illustrator 27.0.0, SVG Export Plug-In . SVG Version: 6.00 Build 0)  -->
<svg version="1.1" id="Warstwa_1" xmlns="http://www.w3.org/2000/svg" xmlns:xlink="http://www.w3.org/1999/xlink" x="0px" y="0px"
	 viewBox="0 0 32 32" style="enable-background:new 0 0 32 32;" xml:space="preserve">
<style type="text/css">
	.st0{fill:#D4B68A;}
	.st1{fill:#FFFFFF;}
</style>
<g>
	<rect class="st0" width="32" height="32"/>
	<g>
		<path class="st1" d="M9.4,9v8.9c0,0.2,0.2,0.3,0.4,0.1l2.8-3c0,0,0.1-0.1,0.2-0.1h0.4c0.2,0,0.3,0.2,0.2,0.4l-2.9,2.9
			c-0.1,0.1-0.1,0.2,0,0.3l3.9,4c0.1,0.1,0,0.4-0.2,0.4h-0.5c-0.1,0-0.1,0-0.2-0.1L10,19.2c-0.1-0.1-0.2-0.1-0.3,0l-0.2,0.2
			c0,0-0.1,0.1-0.1,0.2v3.2c0,0.1-0.1,0.2-0.2,0.2H8.9c-0.1,0-0.2-0.1-0.2-0.2V9c0-0.1,0.1-0.2,0.2-0.2h0.4C9.3,8.8,9.4,8.9,9.4,9z"
			/>
		<path class="st1" d="M16.8,19.1c-0.1,0-0.2,0.1-0.2,0.2c0.1,1.9,1.5,3.1,3.1,3.1c1.2,0,2.1-0.7,2.7-1.6c0.1-0.1,0.2-0.1,0.3-0.1
			l0.3,0.2c0.1,0.1,0.1,0.2,0.1,0.3c-0.5,0.9-1.5,2-3.4,2c-2.5,0-3.9-1.8-3.9-4.1c0-2.8,1.9-4.2,3.9-4.2c2.1,0,3.7,1.6,3.8,4
			c0,0.1-0.1,0.2-0.2,0.2H16.8z M22.3,18.4c0.1,0,0.2-0.1,0.2-0.3c-0.3-1.4-1.4-2.5-2.9-2.5c-1.5,0-2.6,1.1-2.9,2.5
			c0,0.1,0.1,0.3,0.2,0.3H22.3z"/>
	</g>
</g>
</svg>
