<?xml version="1.0" encoding="utf-8"?>
<!-- Generator: Adobe Illustrator 26.2.1, SVG Export Plug-In . SVG Version: 6.00 Build 0)  -->
<svg version="1.1" id="Warstwa_1" xmlns="http://www.w3.org/2000/svg" xmlns:xlink="http://www.w3.org/1999/xlink" x="0px" y="0px"
	 viewBox="0 0 300 103" style="enable-background:new 0 0 300 103;" xml:space="preserve">
<style type="text/css">
	.st0{fill:#D4B68A;}
	.st1{fill:#FFFFFF;}
</style>
<rect class="st0" width="300" height="103"/>
<g>
	<path class="st1" d="M42.1,32.6v24c0,0.5,0.6,0.8,1,0.4l7.7-8c0.1-0.1,0.3-0.2,0.4-0.2h1.1c0.5,0,0.8,0.6,0.4,1L45,57.8
		c-0.2,0.2-0.2,0.6,0,0.8l10.6,10.8c0.4,0.4,0.1,1-0.4,1H54c-0.2,0-0.3-0.1-0.4-0.2l-10-10c-0.2-0.2-0.6-0.2-0.8,0l-0.5,0.5
		c-0.1,0.1-0.2,0.3-0.2,0.4v8.7c0,0.3-0.3,0.6-0.6,0.6h-1c-0.3,0-0.6-0.3-0.6-0.6V32.6c0-0.3,0.3-0.6,0.6-0.6h1
		C41.9,32.1,42.1,32.3,42.1,32.6z"/>
	<path class="st1" d="M79,48.9h1c0.3,0,0.6,0.3,0.6,0.6v20.3c0,0.3-0.3,0.6-0.6,0.6h-1c-0.3,0-0.6-0.3-0.6-0.6v-1.6
		c0-0.5-0.6-0.8-1-0.4c-2.1,2.3-5,3.1-7.3,3.1c-5.6,0-10.4-4.3-10.4-11.3c0-6.6,4.2-11.2,10.4-11.2c2.9,0,5.4,0.9,7.4,3
		c0.4,0.4,1,0.1,1-0.4v-1.6C78.5,49.2,78.7,48.9,79,48.9z M61.9,59.5c0,4.8,3,9.4,8.4,9.4c5.4,0,8.3-4.5,8.3-9.4c0-6.4-4.7-9-8.3-9
		C66,50.4,61.9,53.6,61.9,59.5z"/>
	<path class="st1" d="M99.1,52.6c-0.3,0.1-0.6,0-0.8-0.2c-0.8-1.3-2.1-1.9-3.5-1.9c-2.4,0-3.6,1.8-3.6,3.4c0,2.1,1.7,2.8,3.8,3.6
		c2.2,0.8,4.1,1.4,5.5,3.1c0.9,1.1,1.1,2.3,1.1,3.5c0,4.9-3.7,6.8-7,6.8c-3.4,0-6.2-1.9-7.2-5.1c-0.1-0.3,0.1-0.6,0.4-0.7l1-0.3
		c0.3-0.1,0.6,0.1,0.7,0.3c0.9,2.5,3,3.8,5.2,3.8c2.7,0,4.8-1.9,4.8-4.7c0-2.4-1.5-3.3-4.8-4.6c-2.2-0.9-3.7-1.6-4.7-2.8
		c-0.6-0.8-1.1-1.9-0.9-3.6c0.4-2.8,3-4.8,5.8-4.7c2.3,0,4.2,1,5.2,2.9c0.2,0.3,0.1,0.6-0.2,0.8L99.1,52.6z"/>
	<path class="st1" d="M110.4,49.5v20.3c0,0.3-0.3,0.6-0.6,0.6h-1c-0.3,0-0.6-0.3-0.6-0.6V49.5c0-0.3,0.3-0.6,0.6-0.6h1
		C110.1,48.9,110.4,49.2,110.4,49.5z"/>
	<path class="st1" d="M137.2,48.9h1c0.3,0,0.6,0.3,0.6,0.6v20.3c0,0.3-0.3,0.6-0.6,0.6h-1c-0.3,0-0.6-0.3-0.6-0.6v-1.6
		c0-0.5-0.6-0.8-1-0.4c-2.1,2.3-5,3.1-7.3,3.1c-5.6,0-10.4-4.3-10.4-11.3c0-6.6,4.2-11.2,10.4-11.2c2.9,0,5.4,0.9,7.4,3
		c0.4,0.4,1,0.1,1-0.4v-1.6C136.7,49.2,136.9,48.9,137.2,48.9z M120.1,59.5c0,4.8,3,9.4,8.4,9.4c5.4,0,8.3-4.5,8.3-9.4
		c0-6.4-4.7-9-8.3-9C124.2,50.4,120.1,53.6,120.1,59.5z"/>
	<path class="st1" d="M162.6,59.9c-0.3,0-0.6,0.3-0.6,0.6c0.3,5.1,4.1,8.4,8.5,8.4c3.2,0,5.8-1.8,7.2-4.4c0.2-0.3,0.5-0.4,0.8-0.2
		l0.8,0.5c0.3,0.2,0.4,0.5,0.2,0.8c-1.4,2.4-4.2,5.3-9.1,5.3c-6.7,0-10.6-4.9-10.6-11.2c0-7.5,5.1-11.3,10.4-11.3
		c5.6,0,9.9,4.4,10.1,10.9c0,0.3-0.3,0.6-0.6,0.6H162.6z M177.5,57.9c0.4,0,0.6-0.3,0.6-0.7c-0.8-3.9-3.8-6.8-7.8-6.8
		c-4.1,0-7.1,2.9-7.9,6.7c-0.1,0.4,0.2,0.7,0.6,0.7H177.5z"/>
	<path class="st1" d="M188.4,48.9h1c0.3,0,0.6,0.3,0.6,0.6v0.2c0,0.5,0.6,0.8,1,0.4c0.9-1,2.1-1.7,3.7-1.7c0.4,0,1,0.1,1.6,0.3
		c0.3,0.1,0.5,0.5,0.3,0.8l-0.5,0.9c-0.1,0.2-0.4,0.3-0.7,0.2c-0.3-0.1-0.6-0.2-1.1-0.2c-4.3,0-4.4,5.7-4.4,8.4v10.9
		c0,0.3-0.3,0.6-0.6,0.6h-1c-0.3,0-0.6-0.3-0.6-0.6V49.5C187.8,49.2,188.1,48.9,188.4,48.9z"/>
	<path class="st1" d="M204.9,32.6v18.4c0,0.5,0.6,0.8,1,0.4c2-2,4.5-3,7.4-3c6.5,0,10.4,4.8,10.4,11c0,6.3-4,11.4-10.5,11.4
		c-3.8,0-6.1-1.7-7.3-3.1c-0.4-0.4-1-0.1-1,0.4v1.5c0,0.3-0.3,0.6-0.6,0.6h-1c-0.3,0-0.6-0.3-0.6-0.6V32.6c0-0.3,0.3-0.6,0.6-0.6h1
		C204.6,32.1,204.9,32.3,204.9,32.6z M221.5,59.5c0-5.9-3.9-9-8.3-9c-4.2,0-8.4,3-8.4,8.9c0,5.4,2.9,9.6,8.3,9.6
		C218.6,68.9,221.5,64.7,221.5,59.5z"/>
	<path class="st1" d="M232.6,59.9c-0.3,0-0.6,0.3-0.6,0.6c0.3,5.1,4.1,8.4,8.5,8.4c3.2,0,5.8-1.8,7.2-4.4c0.2-0.3,0.5-0.4,0.8-0.2
		l0.8,0.5c0.3,0.2,0.4,0.5,0.2,0.8c-1.4,2.4-4.2,5.3-9.1,5.3c-6.7,0-10.6-4.9-10.6-11.2c0-7.5,5.1-11.3,10.4-11.3
		c5.6,0,9.9,4.4,10.1,10.9c0,0.3-0.3,0.6-0.6,0.6H232.6z M247.5,57.9c0.4,0,0.6-0.3,0.6-0.7c-0.8-3.9-3.8-6.8-7.8-6.8
		c-4.1,0-7.1,2.9-7.9,6.7c-0.1,0.4,0.2,0.7,0.6,0.7H247.5z"/>
	<path class="st1" d="M260,32.6v37.1c0,0.3-0.3,0.6-0.6,0.6h-1c-0.3,0-0.6-0.3-0.6-0.6V32.6c0-0.3,0.3-0.6,0.6-0.6h1
		C259.7,32.1,260,32.3,260,32.6z"/>
	<path class="st1" d="M138.2,39.5h-29.4c-0.3,0-0.6-0.3-0.6-0.6v-1c0-0.3,0.3-0.6,0.6-0.6h29.4c0.3,0,0.6,0.3,0.6,0.6v1
		C138.8,39.2,138.5,39.5,138.2,39.5z"/>
</g>
</svg>
